<svg id="Layer_1" data-name="Layer 1" xmlns="http://www.w3.org/2000/svg" viewBox="0 0 222.8 26.13"><defs><style>.cls-1{fill:#2696b5;}.cls-2{fill:#c7ccec;}.cls-3{fill:#0cd4af;}</style></defs><title>logo2</title><path class="cls-1" d="M7.89,12.15h0" transform="translate(-4.65 -8.96)"/><path class="cls-2" d="M103.72,35.09h-3.55L86.48,14.47V35.09H83.2V9h3.53l13.69,20.63V9h3.3Z" transform="translate(-4.65 -8.96)"/><path class="cls-2" d="M128.29,12.06h-8.65v23h-3.48v-23h-8.58V9h20.7Z" transform="translate(-4.65 -8.96)"/><path class="cls-2" d="M191.6,35.09q-5.53,0-8.26-2.4a8.25,8.25,0,0,1-2.88-6.15h3.33a5.21,5.21,0,0,0,2.43,4.18,9.68,9.68,0,0,0,5.23,1.35,8.46,8.46,0,0,0,4.68-1.15,3.57,3.57,0,0,0,1.77-3.14,3.18,3.18,0,0,0-1.84-3,27.08,27.08,0,0,0-6.32-1.87q-4.48-.92-6.44-2.56a5.41,5.41,0,0,1-2-4.36,6.09,6.09,0,0,1,2.54-5,10.73,10.73,0,0,1,6.75-2,11.8,11.8,0,0,1,7.13,2,7,7,0,0,1,2.87,5.6h-3.37Q196.77,12,190.8,12A8.07,8.07,0,0,0,186.32,13a3.21,3.21,0,0,0-1.59,2.79A2.62,2.62,0,0,0,186,18.18a16.53,16.53,0,0,0,4.76,1.53,46.06,46.06,0,0,1,5.54,1.47,8.89,8.89,0,0,1,3.51,2.25,5.68,5.68,0,0,1,1.46,4.09,6.67,6.67,0,0,1-2.68,5.41A10.83,10.83,0,0,1,191.6,35.09Z" transform="translate(-4.65 -8.96)"/><path class="cls-2" d="M227.45,35.09h-4.56l-9.27-13-4.07,4v9.06h-3.46V9h3.46v13L222.3,9H227L216,19.69Z" transform="translate(-4.65 -8.96)"/><polygon class="cls-2" points="0 11.2 0 26.14 3.46 26.14 3.46 14.3 15.74 14.3 15.74 11.2 3.46 11.2 0 11.2"/><polygon class="cls-2" points="0 0 0 3.1 3.46 3.1 3.46 3.1 17.63 3.1 17.63 0 0 0"/><path class="cls-2" d="M45.34,28q-1.37-3.85-4-4.72v-.07a7,7,0,0,0,4.12-2.37A6.87,6.87,0,0,0,47,16.28,8,8,0,0,0,45.82,12a5.46,5.46,0,0,0-3-2.48A16,16,0,0,0,38.06,9H27v2.87H38.19q5.37,0,5.37,4.46a4.06,4.06,0,0,1-1.39,3.51,7.75,7.75,0,0,1-4.49,1H27V35.09h3.32V23.92h6.14a5.27,5.27,0,0,1,3.39,1.18,6.46,6.46,0,0,1,2.1,3l2.36,7h3.59Z" transform="translate(-4.65 -8.96)"/><path class="cls-2" d="M141,9h-8.92v3.1h8.84q6.14,0,8.35,2.57t2.21,7.26q0,4.81-2.22,7.46T140.93,32h-5.12V22.07h-3.72v13H141q14.33,0,14.33-13.21Q155.34,9,141,9Z" transform="translate(-4.65 -8.96)"/><polygon class="cls-2" points="158.81 3.1 173.87 3.1 173.87 0 154.38 0 154.38 3.1 157.95 3.1 158.81 3.1"/><polygon class="cls-2" points="159.83 14.64 173.87 14.64 173.87 11.53 159.06 11.53 158.15 11.53 154.38 11.53 154.38 14.64 158.15 14.64 159.83 14.64"/><polygon class="cls-2" points="157.84 23.03 157.84 23.03 154.38 23.03 154.38 26.14 173.87 26.14 173.87 23.03 157.84 23.03"/><path class="cls-3" d="M61.81,11.86H51.73a.59.59,0,0,0-.59.59v6.18a.59.59,0,0,0,.59.59h2.86v2.16a.4.4,0,0,0,.4.4h3.49a.4.4,0,0,0,.4-.4V19.21h2.94a.59.59,0,0,0,.59-.59V12.45A.59.59,0,0,0,61.81,11.86Z" transform="translate(-4.65 -8.96)"/><rect class="cls-3" x="46.49" y="13.68" width="26.38" height="12.31" rx="0.76" ry="0.76"/><circle class="cls-3" cx="66.96" cy="3.67" r="2.44"/><path class="cls-3" d="M77.56,17.84c0-1.09-2.66-2-6-2s-6,.89-6,2a.69.69,0,0,0,0,.22h0v3.7h11.9v-3.7h0A.69.69,0,0,0,77.56,17.84Z" transform="translate(-4.65 -8.96)"/></svg>